<svg xmlns="http://www.w3.org/2000/svg" width="256" height="256" viewBox="0 0 100 100"><rect width="100" height="100" rx="50" fill="#c06ee7"></rect><path d="M40.33 77.31L40.33 77.31Q39.33 77.59 37.53 77.81Q35.73 78.03 33.75 78.03L33.75 78.03Q29.52 78.03 27.86 76.59Q26.20 75.16 26.20 71.38L26.20 71.38L26.20 22.69Q27.18 22.51 29.03 22.24Q30.88 21.97 32.67 21.97L32.67 21.97Q36.72 21.97 38.52 23.32Q40.33 24.67 40.33 28.63L40.33 28.63L40.33 44.47L59.67 44.47L59.67 22.69Q60.66 22.51 62.51 22.24Q64.36 21.97 66.25 21.97L66.25 21.97Q70.20 21.97 72.00 23.41Q73.80 24.85 73.80 28.80L73.80 28.80L73.80 77.31Q72.81 77.59 71.02 77.81Q69.22 78.03 67.23 78.03L67.23 78.03Q63.00 78.03 61.34 76.59Q59.67 75.16 59.67 71.38L59.67 71.38L59.67 55.63L40.33 55.63L40.33 77.31Z" fill="#fff"></path></svg>